<svg width="51" height="47" viewBox="0 0 51 47" fill="none" xmlns="http://www.w3.org/2000/svg">
<path d="M25.1336 15.3729L27.2812 14.331L32.8474 25.8035C33.5996 27.3539 33.7208 28.7936 33.2107 30.1225C32.7082 31.4477 31.6816 32.4865 30.1312 33.2387C28.5214 34.0198 27.0679 34.2163 25.7708 33.8284C24.4737 33.4404 23.4652 32.5046 22.7453 31.021L24.8818 29.9844C25.3317 30.9117 25.9349 31.5126 26.6913 31.7871C27.4551 32.0581 28.3192 31.9596 29.2836 31.4917C30.1664 31.0634 30.7436 30.4397 31.0152 29.6206C31.2942 28.7978 31.1945 27.8839 30.716 26.8789L25.1336 15.3729Z" fill="white"/>
<path d="M27.8162 26.8816C27.9921 28.5527 23.5066 30.6635 23.5066 30.6635C22.2093 28.9592 21.8355 26.8816 23.2427 25.7383C24.65 24.5949 27.6403 25.2105 27.8162 26.8816Z" stroke="white" stroke-width="1.75902"/>
<line x1="17.3982" y1="19.4298" x2="26.9476" y2="15.0323" stroke="white" stroke-width="1.75902"/>
<circle cx="14.6718" cy="16.6066" r="0.87951" transform="rotate(-4.89696 14.6718 16.6066)" fill="white"/>
<circle cx="25.0499" cy="11.8573" r="0.87951" transform="rotate(-4.89696 25.0499 11.8573)" fill="white"/>
<path d="M49.2526 23.0432C49.2526 35.2156 38.495 45.2068 25.066 45.2068C11.6371 45.2068 0.87951 35.2156 0.87951 23.0432C0.87951 10.8707 11.6371 0.87951 25.066 0.87951C38.495 0.87951 49.2526 10.8707 49.2526 23.0432Z" stroke="white" stroke-width="1.75902"/>
</svg>
