<svg width="214" height="47" viewBox="0 0 214 47" fill="none" xmlns="http://www.w3.org/2000/svg">
<path d="M73.6279 31.293C71.4795 31.293 69.7314 30.5898 68.3838 29.1836C67.0361 27.7676 66.3623 25.8779 66.3623 23.5146V23.0166C66.3623 21.4443 66.6602 20.043 67.2559 18.8125C67.8613 17.5723 68.7012 16.6055 69.7754 15.9121C70.8594 15.209 72.0312 14.8574 73.291 14.8574C75.3516 14.8574 76.9531 15.5361 78.0957 16.8936C79.2383 18.251 79.8096 20.1943 79.8096 22.7236V23.8516H69.0723C69.1113 25.4141 69.5654 26.6787 70.4346 27.6455C71.3135 28.6025 72.4268 29.0811 73.7744 29.0811C74.7314 29.0811 75.542 28.8857 76.2061 28.4951C76.8701 28.1045 77.4512 27.5869 77.9492 26.9424L79.6045 28.2314C78.2764 30.2725 76.2842 31.293 73.6279 31.293ZM73.291 17.084C72.1973 17.084 71.2793 17.4844 70.5371 18.2852C69.7949 19.0762 69.3359 20.1895 69.1602 21.625H77.0996V21.4199C77.0215 20.043 76.6504 18.9785 75.9863 18.2266C75.3223 17.4648 74.4238 17.084 73.291 17.084ZM92.1875 26.7959C92.1875 26.0635 91.9092 25.4971 91.3525 25.0967C90.8057 24.6865 89.8438 24.335 88.4668 24.042C87.0996 23.749 86.0107 23.3975 85.2002 22.9873C84.3994 22.5771 83.8037 22.0889 83.4131 21.5225C83.0322 20.9561 82.8418 20.2822 82.8418 19.501C82.8418 18.2021 83.3887 17.1035 84.4824 16.2051C85.5859 15.3066 86.9922 14.8574 88.7012 14.8574C90.498 14.8574 91.9531 15.3213 93.0664 16.249C94.1895 17.1768 94.751 18.3633 94.751 19.8086H92.0264C92.0264 19.0664 91.709 18.4268 91.0742 17.8896C90.4492 17.3525 89.6582 17.084 88.7012 17.084C87.7148 17.084 86.9434 17.2988 86.3867 17.7285C85.8301 18.1582 85.5518 18.7197 85.5518 19.4131C85.5518 20.0674 85.8105 20.5605 86.3281 20.8926C86.8457 21.2246 87.7783 21.542 89.126 21.8447C90.4834 22.1475 91.582 22.5088 92.4219 22.9287C93.2617 23.3486 93.8818 23.8564 94.2822 24.4521C94.6924 25.0381 94.8975 25.7559 94.8975 26.6055C94.8975 28.0215 94.3311 29.1592 93.1982 30.0186C92.0654 30.8682 90.5957 31.293 88.7891 31.293C87.5195 31.293 86.3965 31.0684 85.4199 30.6191C84.4434 30.1699 83.6768 29.5449 83.1201 28.7441C82.5732 27.9336 82.2998 27.0596 82.2998 26.1221H85.0098C85.0586 27.0303 85.4199 27.7529 86.0938 28.29C86.7773 28.8174 87.6758 29.0811 88.7891 29.0811C89.8145 29.0811 90.6348 28.876 91.25 28.4658C91.875 28.0459 92.1875 27.4893 92.1875 26.7959ZM102.104 11.3125V15.1504H105.063V17.2451H102.104V27.0742C102.104 27.709 102.236 28.1875 102.5 28.5098C102.764 28.8223 103.213 28.9785 103.848 28.9785C104.16 28.9785 104.59 28.9199 105.137 28.8027V31C104.424 31.1953 103.73 31.293 103.057 31.293C101.846 31.293 100.933 30.9268 100.317 30.1943C99.7021 29.4619 99.3945 28.4219 99.3945 27.0742V17.2451H96.5088V15.1504H99.3945V11.3125H102.104ZM110.952 17.0693C112.153 15.5947 113.716 14.8574 115.64 14.8574C118.989 14.8574 120.679 16.7471 120.708 20.5264V31H117.998V20.5117C117.988 19.3691 117.725 18.5244 117.207 17.9775C116.699 17.4307 115.903 17.1572 114.819 17.1572C113.94 17.1572 113.169 17.3916 112.505 17.8604C111.841 18.3291 111.323 18.9443 110.952 19.7061V31H108.242V8.5H110.952V17.0693ZM131.343 31.293C129.194 31.293 127.446 30.5898 126.099 29.1836C124.751 27.7676 124.077 25.8779 124.077 23.5146V23.0166C124.077 21.4443 124.375 20.043 124.971 18.8125C125.576 17.5723 126.416 16.6055 127.49 15.9121C128.574 15.209 129.746 14.8574 131.006 14.8574C133.066 14.8574 134.668 15.5361 135.811 16.8936C136.953 18.251 137.524 20.1943 137.524 22.7236V23.8516H126.787C126.826 25.4141 127.28 26.6787 128.149 27.6455C129.028 28.6025 130.142 29.0811 131.489 29.0811C132.446 29.0811 133.257 28.8857 133.921 28.4951C134.585 28.1045 135.166 27.5869 135.664 26.9424L137.319 28.2314C135.991 30.2725 133.999 31.293 131.343 31.293ZM131.006 17.084C129.912 17.084 128.994 17.4844 128.252 18.2852C127.51 19.0762 127.051 20.1895 126.875 21.625H134.814V21.4199C134.736 20.043 134.365 18.9785 133.701 18.2266C133.037 17.4648 132.139 17.084 131.006 17.084ZM148.335 17.582C147.925 17.5137 147.48 17.4795 147.002 17.4795C145.225 17.4795 144.019 18.2363 143.384 19.75V31H140.674V15.1504H143.311L143.354 16.9814C144.243 15.5654 145.503 14.8574 147.134 14.8574C147.661 14.8574 148.062 14.9258 148.335 15.0625V17.582ZM161.079 15.1504V32.8311C161.079 35.8779 159.697 37.4014 156.934 37.4014C156.338 37.4014 155.786 37.3135 155.278 37.1377V34.9697C155.591 35.0479 156.001 35.0869 156.509 35.0869C157.114 35.0869 157.573 34.9209 157.886 34.5889C158.208 34.2666 158.369 33.7002 158.369 32.8896V15.1504H161.079ZM158.091 10.9463C158.091 10.5166 158.223 10.1504 158.486 9.84766C158.76 9.53516 159.155 9.37891 159.673 9.37891C160.2 9.37891 160.601 9.53027 160.874 9.83301C161.147 10.1357 161.284 10.5068 161.284 10.9463C161.284 11.3857 161.147 11.752 160.874 12.0449C160.601 12.3379 160.2 12.4844 159.673 12.4844C159.146 12.4844 158.75 12.3379 158.486 12.0449C158.223 11.752 158.091 11.3857 158.091 10.9463ZM175.244 31C175.088 30.6875 174.961 30.1309 174.863 29.3301C173.604 30.6387 172.1 31.293 170.352 31.293C168.789 31.293 167.505 30.8535 166.499 29.9746C165.503 29.0859 165.005 27.9629 165.005 26.6055C165.005 24.9551 165.63 23.6758 166.88 22.7676C168.14 21.8496 169.907 21.3906 172.183 21.3906H174.819V20.1455C174.819 19.1982 174.536 18.4463 173.97 17.8896C173.403 17.3232 172.568 17.04 171.465 17.04C170.498 17.04 169.688 17.2842 169.033 17.7725C168.379 18.2607 168.052 18.8516 168.052 19.5449H165.327C165.327 18.7539 165.605 17.9922 166.162 17.2598C166.729 16.5176 167.49 15.9316 168.447 15.502C169.414 15.0723 170.474 14.8574 171.626 14.8574C173.452 14.8574 174.883 15.3164 175.918 16.2344C176.953 17.1426 177.49 18.3975 177.529 19.999V27.2939C177.529 28.749 177.715 29.9062 178.086 30.7656V31H175.244ZM170.747 28.9346C171.597 28.9346 172.402 28.7148 173.164 28.2754C173.926 27.8359 174.478 27.2646 174.819 26.5615V23.3096H172.695C169.375 23.3096 167.715 24.2812 167.715 26.2246C167.715 27.0742 167.998 27.7383 168.564 28.2168C169.131 28.6953 169.858 28.9346 170.747 28.9346ZM184.341 15.1504L184.429 17.1426C185.64 15.6191 187.222 14.8574 189.175 14.8574C192.524 14.8574 194.214 16.7471 194.243 20.5264V31H191.533V20.5117C191.523 19.3691 191.26 18.5244 190.742 17.9775C190.234 17.4307 189.438 17.1572 188.354 17.1572C187.476 17.1572 186.704 17.3916 186.04 17.8604C185.376 18.3291 184.858 18.9443 184.487 19.7061V31H181.777V15.1504H184.341ZM197.686 22.9434C197.686 20.4727 198.257 18.5098 199.399 17.0547C200.542 15.5898 202.056 14.8574 203.94 14.8574C205.874 14.8574 207.383 15.541 208.467 16.9082L208.599 15.1504H211.074V30.6191C211.074 32.6699 210.464 34.2861 209.243 35.4678C208.032 36.6494 206.401 37.2402 204.351 37.2402C203.208 37.2402 202.09 36.9961 200.996 36.5078C199.902 36.0195 199.067 35.3506 198.491 34.501L199.897 32.875C201.06 34.3105 202.48 35.0283 204.16 35.0283C205.479 35.0283 206.504 34.6572 207.236 33.915C207.979 33.1729 208.35 32.1279 208.35 30.7803V29.418C207.266 30.668 205.786 31.293 203.911 31.293C202.056 31.293 200.552 30.5459 199.399 29.0518C198.257 27.5576 197.686 25.5215 197.686 22.9434ZM200.41 23.251C200.41 25.0381 200.776 26.4443 201.509 27.4697C202.241 28.4854 203.267 28.9932 204.585 28.9932C206.294 28.9932 207.549 28.2168 208.35 26.6641V19.4277C207.52 17.9141 206.274 17.1572 204.614 17.1572C203.296 17.1572 202.266 17.6699 201.523 18.6953C200.781 19.7207 200.41 21.2393 200.41 23.251Z" fill="white"/>
<path d="M25.1336 15.3729L27.2812 14.331L32.8474 25.8035C33.5996 27.3539 33.7208 28.7936 33.2107 30.1225C32.7082 31.4477 31.6816 32.4865 30.1312 33.2387C28.5214 34.0198 27.0679 34.2163 25.7708 33.8284C24.4737 33.4404 23.4652 32.5046 22.7453 31.021L24.8818 29.9844C25.3317 30.9117 25.9349 31.5126 26.6913 31.7871C27.4551 32.0581 28.3192 31.9596 29.2836 31.4917C30.1664 31.0634 30.7436 30.4397 31.0152 29.6206C31.2942 28.7978 31.1945 27.8839 30.716 26.8789L25.1336 15.3729Z" fill="white"/>
<path d="M27.8162 26.8816C27.9921 28.5527 23.5066 30.6635 23.5066 30.6635C22.2093 28.9592 21.8355 26.8816 23.2427 25.7383C24.65 24.5949 27.6403 25.2105 27.8162 26.8816Z" stroke="white" stroke-width="1.75902"/>
<path d="M17.3982 19.4298L26.9476 15.0323" stroke="white" stroke-width="1.75902"/>
<path d="M14.7469 17.4829C15.2308 17.4414 15.5895 17.0155 15.5481 16.5315C15.5066 16.0475 15.0807 15.6888 14.5967 15.7303C14.1127 15.7717 13.754 16.1977 13.7955 16.6817C13.8369 17.1656 14.2629 17.5243 14.7469 17.4829Z" fill="white"/>
<path d="M25.125 12.7336C25.6089 12.6921 25.9677 12.2662 25.9262 11.7822C25.8847 11.2983 25.4588 10.9395 24.9748 10.981C24.4908 11.0225 24.1321 11.4484 24.1736 11.9324C24.2151 12.4164 24.641 12.7751 25.125 12.7336Z" fill="white"/>
<path d="M49.2526 23.0432C49.2526 35.2156 38.495 45.2068 25.066 45.2068C11.6371 45.2068 0.879517 35.2156 0.879517 23.0432C0.879517 10.8707 11.6371 0.879517 25.066 0.879517C38.495 0.879517 49.2526 10.8707 49.2526 23.0432Z" stroke="white" stroke-width="1.75902"/>
</svg>
