<svg width="224" height="47" viewBox="0 0 224 47" fill="none" xmlns="http://www.w3.org/2000/svg">
<path d="M79.5312 21.1416H70.2881V28.7002H81.0254V31H67.4756V9.67188H80.8789V11.9863H70.2881V18.8418H79.5312V21.1416ZM93.3301 26.7959C93.3301 26.0635 93.0518 25.4971 92.4951 25.0967C91.9482 24.6865 90.9863 24.335 89.6094 24.042C88.2422 23.749 87.1533 23.3975 86.3428 22.9873C85.542 22.5771 84.9463 22.0889 84.5557 21.5225C84.1748 20.9561 83.9844 20.2822 83.9844 19.501C83.9844 18.2021 84.5312 17.1035 85.625 16.2051C86.7285 15.3066 88.1348 14.8574 89.8438 14.8574C91.6406 14.8574 93.0957 15.3213 94.209 16.249C95.332 17.1768 95.8936 18.3633 95.8936 19.8086H93.1689C93.1689 19.0664 92.8516 18.4268 92.2168 17.8896C91.5918 17.3525 90.8008 17.084 89.8438 17.084C88.8574 17.084 88.0859 17.2988 87.5293 17.7285C86.9727 18.1582 86.6943 18.7197 86.6943 19.4131C86.6943 20.0674 86.9531 20.5605 87.4707 20.8926C87.9883 21.2246 88.9209 21.542 90.2686 21.8447C91.626 22.1475 92.7246 22.5088 93.5645 22.9287C94.4043 23.3486 95.0244 23.8564 95.4248 24.4521C95.835 25.0381 96.04 25.7559 96.04 26.6055C96.04 28.0215 95.4736 29.1592 94.3408 30.0186C93.208 30.8682 91.7383 31.293 89.9316 31.293C88.6621 31.293 87.5391 31.0684 86.5625 30.6191C85.5859 30.1699 84.8193 29.5449 84.2627 28.7441C83.7158 27.9336 83.4424 27.0596 83.4424 26.1221H86.1523C86.2012 27.0303 86.5625 27.7529 87.2363 28.29C87.9199 28.8174 88.8184 29.0811 89.9316 29.0811C90.957 29.0811 91.7773 28.876 92.3926 28.4658C93.0176 28.0459 93.3301 27.4893 93.3301 26.7959ZM103.247 11.3125V15.1504H106.206V17.2451H103.247V27.0742C103.247 27.709 103.379 28.1875 103.643 28.5098C103.906 28.8223 104.355 28.9785 104.99 28.9785C105.303 28.9785 105.732 28.9199 106.279 28.8027V31C105.566 31.1953 104.873 31.293 104.199 31.293C102.988 31.293 102.075 30.9268 101.46 30.1943C100.845 29.4619 100.537 28.4219 100.537 27.0742V17.2451H97.6514V15.1504H100.537V11.3125H103.247ZM112.095 17.0693C113.296 15.5947 114.858 14.8574 116.782 14.8574C120.132 14.8574 121.821 16.7471 121.851 20.5264V31H119.141V20.5117C119.131 19.3691 118.867 18.5244 118.35 17.9775C117.842 17.4307 117.046 17.1572 115.962 17.1572C115.083 17.1572 114.312 17.3916 113.647 17.8604C112.983 18.3291 112.466 18.9443 112.095 19.7061V31H109.385V8.5H112.095V17.0693ZM132.485 31.293C130.337 31.293 128.589 30.5898 127.241 29.1836C125.894 27.7676 125.22 25.8779 125.22 23.5146V23.0166C125.22 21.4443 125.518 20.043 126.113 18.8125C126.719 17.5723 127.559 16.6055 128.633 15.9121C129.717 15.209 130.889 14.8574 132.148 14.8574C134.209 14.8574 135.811 15.5361 136.953 16.8936C138.096 18.251 138.667 20.1943 138.667 22.7236V23.8516H127.93C127.969 25.4141 128.423 26.6787 129.292 27.6455C130.171 28.6025 131.284 29.0811 132.632 29.0811C133.589 29.0811 134.399 28.8857 135.063 28.4951C135.728 28.1045 136.309 27.5869 136.807 26.9424L138.462 28.2314C137.134 30.2725 135.142 31.293 132.485 31.293ZM132.148 17.084C131.055 17.084 130.137 17.4844 129.395 18.2852C128.652 19.0762 128.193 20.1895 128.018 21.625H135.957V21.4199C135.879 20.043 135.508 18.9785 134.844 18.2266C134.18 17.4648 133.281 17.084 132.148 17.084ZM149.478 17.582C149.067 17.5137 148.623 17.4795 148.145 17.4795C146.367 17.4795 145.161 18.2363 144.526 19.75V31H141.816V15.1504H144.453L144.497 16.9814C145.386 15.5654 146.646 14.8574 148.276 14.8574C148.804 14.8574 149.204 14.9258 149.478 15.0625V17.582ZM168.784 9.67188H171.611V24.7744C171.611 26.8154 170.996 28.4121 169.766 29.5645C168.545 30.7168 166.914 31.293 164.873 31.293C162.754 31.293 161.104 30.751 159.922 29.667C158.74 28.583 158.149 27.0645 158.149 25.1113H160.962C160.962 26.332 161.294 27.2842 161.958 27.9678C162.632 28.6514 163.604 28.9932 164.873 28.9932C166.035 28.9932 166.973 28.627 167.686 27.8945C168.408 27.1621 168.774 26.1367 168.784 24.8184V9.67188ZM185.762 31C185.605 30.6875 185.479 30.1309 185.381 29.3301C184.121 30.6387 182.617 31.293 180.869 31.293C179.307 31.293 178.022 30.8535 177.017 29.9746C176.021 29.0859 175.522 27.9629 175.522 26.6055C175.522 24.9551 176.147 23.6758 177.397 22.7676C178.657 21.8496 180.425 21.3906 182.7 21.3906H185.337V20.1455C185.337 19.1982 185.054 18.4463 184.487 17.8896C183.921 17.3232 183.086 17.04 181.982 17.04C181.016 17.04 180.205 17.2842 179.551 17.7725C178.896 18.2607 178.569 18.8516 178.569 19.5449H175.845C175.845 18.7539 176.123 17.9922 176.68 17.2598C177.246 16.5176 178.008 15.9316 178.965 15.502C179.932 15.0723 180.991 14.8574 182.144 14.8574C183.97 14.8574 185.4 15.3164 186.436 16.2344C187.471 17.1426 188.008 18.3975 188.047 19.999V27.2939C188.047 28.749 188.232 29.9062 188.604 30.7656V31H185.762ZM181.265 28.9346C182.114 28.9346 182.92 28.7148 183.682 28.2754C184.443 27.8359 184.995 27.2646 185.337 26.5615V23.3096H183.213C179.893 23.3096 178.232 24.2812 178.232 26.2246C178.232 27.0742 178.516 27.7383 179.082 28.2168C179.648 28.6953 180.376 28.9346 181.265 28.9346ZM194.858 15.1504L194.946 17.1426C196.157 15.6191 197.739 14.8574 199.692 14.8574C203.042 14.8574 204.731 16.7471 204.761 20.5264V31H202.051V20.5117C202.041 19.3691 201.777 18.5244 201.26 17.9775C200.752 17.4307 199.956 17.1572 198.872 17.1572C197.993 17.1572 197.222 17.3916 196.558 17.8604C195.894 18.3291 195.376 18.9443 195.005 19.7061V31H192.295V15.1504H194.858ZM208.203 22.9434C208.203 20.4727 208.774 18.5098 209.917 17.0547C211.06 15.5898 212.573 14.8574 214.458 14.8574C216.392 14.8574 217.9 15.541 218.984 16.9082L219.116 15.1504H221.592V30.6191C221.592 32.6699 220.981 34.2861 219.761 35.4678C218.55 36.6494 216.919 37.2402 214.868 37.2402C213.726 37.2402 212.607 36.9961 211.514 36.5078C210.42 36.0195 209.585 35.3506 209.009 34.501L210.415 32.875C211.577 34.3105 212.998 35.0283 214.678 35.0283C215.996 35.0283 217.021 34.6572 217.754 33.915C218.496 33.1729 218.867 32.1279 218.867 30.7803V29.418C217.783 30.668 216.304 31.293 214.429 31.293C212.573 31.293 211.069 30.5459 209.917 29.0518C208.774 27.5576 208.203 25.5215 208.203 22.9434ZM210.928 23.251C210.928 25.0381 211.294 26.4443 212.026 27.4697C212.759 28.4854 213.784 28.9932 215.103 28.9932C216.812 28.9932 218.066 28.2168 218.867 26.6641V19.4277C218.037 17.9141 216.792 17.1572 215.132 17.1572C213.813 17.1572 212.783 17.6699 212.041 18.6953C211.299 19.7207 210.928 21.2393 210.928 23.251Z" fill="white"/>
<path d="M25.1336 15.3729L27.2812 14.331L32.8474 25.8035C33.5996 27.3539 33.7208 28.7936 33.2107 30.1225C32.7082 31.4477 31.6816 32.4865 30.1312 33.2387C28.5214 34.0198 27.0679 34.2163 25.7708 33.8284C24.4737 33.4404 23.4652 32.5046 22.7453 31.021L24.8818 29.9844C25.3317 30.9117 25.9349 31.5126 26.6913 31.7871C27.4551 32.0581 28.3192 31.9596 29.2836 31.4917C30.1664 31.0634 30.7436 30.4397 31.0152 29.6206C31.2942 28.7978 31.1945 27.8839 30.716 26.8789L25.1336 15.3729Z" fill="white"/>
<path d="M27.8162 26.8816C27.9921 28.5527 23.5066 30.6635 23.5066 30.6635C22.2093 28.9592 21.8355 26.8816 23.2427 25.7383C24.65 24.5949 27.6403 25.2105 27.8162 26.8816Z" stroke="white" stroke-width="1.75902"/>
<path d="M17.3982 19.4298L26.9476 15.0323" stroke="white" stroke-width="1.75902"/>
<path d="M14.7469 17.4829C15.2308 17.4414 15.5895 17.0155 15.5481 16.5315C15.5066 16.0475 15.0807 15.6888 14.5967 15.7303C14.1127 15.7717 13.754 16.1977 13.7955 16.6817C13.8369 17.1656 14.2629 17.5243 14.7469 17.4829Z" fill="white"/>
<path d="M25.125 12.7336C25.6089 12.6921 25.9677 12.2662 25.9262 11.7822C25.8847 11.2983 25.4588 10.9395 24.9748 10.981C24.4908 11.0225 24.1321 11.4484 24.1736 11.9324C24.2151 12.4164 24.641 12.7751 25.125 12.7336Z" fill="white"/>
<path d="M49.2526 23.0432C49.2526 35.2156 38.495 45.2068 25.066 45.2068C11.6371 45.2068 0.879517 35.2156 0.879517 23.0432C0.879517 10.8707 11.6371 0.879517 25.066 0.879517C38.495 0.879517 49.2526 10.8707 49.2526 23.0432Z" stroke="white" stroke-width="1.75902"/>
</svg>
